<svg width="50" height="48" viewBox="0 0 50 48" fill="none" xmlns="http://www.w3.org/2000/svg">
<path d="M25 0.041748C11.1875 0.041748 0 11.0417 0 24.6084C0 35.4647 7.1625 44.6709 17.0937 47.9167C18.3437 48.148 18.8021 47.3876 18.8021 46.7355C18.8021 46.1522 18.7812 44.6063 18.7708 42.5584C11.8167 44.0397 10.35 39.2626 10.35 39.2626C9.2125 36.4272 7.56875 35.6688 7.56875 35.6688C5.30417 34.1459 7.74375 34.1772 7.74375 34.1772C10.2542 34.348 11.5729 36.7084 11.5729 36.7084C13.8021 40.4647 17.425 39.3792 18.8542 38.7522C19.0792 37.1626 19.7229 36.0813 20.4375 35.4667C14.8854 34.8522 9.05 32.7397 9.05 23.3272C9.05 20.6459 10.0187 18.4542 11.6229 16.7355C11.3417 16.1147 10.4979 13.6167 11.8417 10.2334C11.8417 10.2334 13.9354 9.57508 18.7167 12.7522C20.7167 12.2063 22.8417 11.9355 24.9667 11.923C27.0917 11.9355 29.2167 12.2063 31.2167 12.7522C35.9667 9.57508 38.0604 10.2334 38.0604 10.2334C39.4042 13.6167 38.5604 16.1147 38.3104 16.7355C39.9042 18.4542 40.8729 20.6459 40.8729 23.3272C40.8729 32.7647 35.0292 34.8417 29.4667 35.4459C30.3417 36.1834 31.1542 37.6897 31.1542 39.9917C31.1542 43.2792 31.1229 45.9209 31.1229 46.7188C31.1229 47.3626 31.5604 48.1313 32.8417 47.8855C42.8437 44.6605 50 35.448 50 24.6084C50 11.0417 38.8062 0.041748 25 0.041748V0.041748Z" fill="white"/>
</svg>
